<svg width="79" height="18" viewBox="0 0 79 18" fill="none" xmlns="http://www.w3.org/2000/svg">
<path d="M74.5315 1.48926H72.2974C71.3098 1.48926 70.3627 1.88157 69.6644 2.57988C68.9661 3.27819 68.5738 4.2253 68.5738 5.21286V7.44703H66.3396V10.4259H68.5738V16.3837H71.5526V10.4259H73.7868L74.5315 7.44703H71.5526V5.21286C71.5526 5.01535 71.6311 4.82593 71.7708 4.68627C71.9104 4.5466 72.0999 4.46814 72.2974 4.46814H74.5315V1.48926Z" stroke="white" stroke-width="0.714932" stroke-linecap="round" stroke-linejoin="round"/>
<g clip-path="url(#clip0_35_856)">
<path d="M60.0245 2.23405C59.3113 2.73709 58.5217 3.12184 57.6861 3.37347C57.2375 2.85776 56.6415 2.49224 55.9784 2.32634C55.3154 2.16044 54.6174 2.20217 53.9789 2.44589C53.3404 2.68961 52.7921 3.12355 52.4082 3.68903C52.0243 4.2545 51.8234 4.92423 51.8326 5.60764V6.35236C50.5238 6.38629 49.227 6.09604 48.0576 5.50743C46.8882 4.91883 45.8825 4.05015 45.1301 2.97877C45.1301 2.97877 42.1512 9.68126 48.8537 12.6601C47.3199 13.7012 45.4929 14.2233 43.6406 14.1496C50.3431 17.8732 58.535 14.1496 58.535 5.5853C58.5344 5.37786 58.5144 5.17093 58.4755 4.96718C59.2355 4.21761 59.7719 3.27123 60.0245 2.23405V2.23405Z" stroke="white" stroke-width="0.714932" stroke-linecap="round" stroke-linejoin="round"/>
</g>
<g clip-path="url(#clip1_35_856)">
<path d="M16.7861 4.78123C16.6976 4.42779 16.5175 4.10396 16.2638 3.84244C16.0101 3.58092 15.6919 3.39097 15.3413 3.29179C14.0604 2.979 8.93674 2.979 8.93674 2.979C8.93674 2.979 3.81306 2.979 2.53214 3.32158C2.18156 3.42076 1.86336 3.61071 1.60969 3.87223C1.35601 4.13375 1.17585 4.45758 1.08738 4.81102C0.852955 6.11097 0.738284 7.42969 0.74481 8.75059C0.736454 10.0814 0.851133 11.4102 1.08738 12.72C1.18491 13.0624 1.36912 13.3739 1.6222 13.6244C1.87528 13.8749 2.18869 14.0558 2.53214 14.1498C3.81306 14.4924 8.93674 14.4924 8.93674 14.4924C8.93674 14.4924 14.0604 14.4924 15.3413 14.1498C15.6919 14.0506 16.0101 13.8607 16.2638 13.5992C16.5175 13.3376 16.6976 13.0138 16.7861 12.6604C17.0187 11.3702 17.1334 10.0615 17.1287 8.75059C17.137 7.41974 17.0224 6.09097 16.7861 4.78123V4.78123Z" stroke="white" stroke-width="0.714932" stroke-linecap="round" stroke-linejoin="round"/>
<path d="M7.26123 11.1854L11.5434 8.75018L7.26123 6.31494V11.1854Z" stroke="white" stroke-width="0.714932" stroke-linecap="round" stroke-linejoin="round"/>
</g>
<path d="M34.1083 1.48926H26.6611C24.6046 1.48926 22.9375 3.15637 22.9375 5.21286V12.6601C22.9375 14.7166 24.6046 16.3837 26.6611 16.3837H34.1083C36.1648 16.3837 37.8319 14.7166 37.8319 12.6601V5.21286C37.8319 3.15637 36.1648 1.48926 34.1083 1.48926Z" stroke="white" stroke-width="0.714932" stroke-linecap="round" stroke-linejoin="round"/>
<path d="M33.3635 8.46723C33.4554 9.08702 33.3496 9.72001 33.061 10.2762C32.7724 10.8323 32.3158 11.2833 31.7562 11.565C31.1965 11.8467 30.5622 11.9448 29.9436 11.8452C29.325 11.7457 28.7535 11.4536 28.3105 11.0106C27.8674 10.5675 27.5754 9.99605 27.4758 9.37744C27.3763 8.75882 27.4743 8.12458 27.756 7.5649C28.0377 7.00523 28.4887 6.54863 29.0449 6.26005C29.601 5.97147 30.234 5.86561 30.8538 5.95752C31.486 6.05127 32.0713 6.34586 32.5233 6.79779C32.9752 7.24972 33.2698 7.83502 33.3635 8.46723Z" stroke="white" stroke-width="0.714932" stroke-linecap="round" stroke-linejoin="round"/>
<path d="M34.4805 4.84082H34.4892" stroke="white" stroke-width="0.714932" stroke-linecap="round" stroke-linejoin="round"/>
<defs>
<clipPath id="clip0_35_856">
<rect width="17.8733" height="17.8733" fill="white" transform="translate(42.896)"/>
</clipPath>
<clipPath id="clip1_35_856">
<rect width="17.8733" height="17.8733" fill="white"/>
</clipPath>
</defs>
</svg>
