<svg width="20" height="20" viewBox="0 0 20 20" fill="none" xmlns="http://www.w3.org/2000/svg">
<g clip-path="url(#clip0_34_591)">
<path d="M17.4819 8.33334C17.4819 14.1667 9.98764 19.1667 9.98764 19.1667C9.98764 19.1667 2.49341 14.1667 2.49341 8.33334C2.49341 6.34422 3.28298 4.43656 4.68842 3.03004C6.09386 1.62352 8.00005 0.833344 9.98764 0.833344C11.9752 0.833344 13.8814 1.62352 15.2869 3.03004C16.6923 4.43656 17.4819 6.34422 17.4819 8.33334Z" stroke="#17C2EC" stroke-width="2" stroke-linecap="round" stroke-linejoin="round"/>
<path d="M9.98758 10.8333C11.3672 10.8333 12.4857 9.71406 12.4857 8.33334C12.4857 6.95263 11.3672 5.83334 9.98758 5.83334C8.60793 5.83334 7.4895 6.95263 7.4895 8.33334C7.4895 9.71406 8.60793 10.8333 9.98758 10.8333Z" stroke="#17C2EC" stroke-width="2" stroke-linecap="round" stroke-linejoin="round"/>
</g>
<defs>
<clipPath id="clip0_34_591">
<rect width="19.9846" height="20" fill="white" transform="translate(-0.00463867)"/>
</clipPath>
</defs>
</svg>
