<svg width="0" height="0" class="hidden">
    <symbol fill="none" xmlns="http://www.w3.org/2000/svg" viewBox="0 0 77 77" id="persons">
        <g filter="url(#filter0_d_36_168)">
            <rect x="3.67773" y="0.590454" width="69.8545" height="69.8545" rx="20.9563" fill="#C4C4C4"
                fill-opacity="0.1"></rect>
            <g clip-path="url(#clip0_36_168)">
                <g clip-path="url(#clip1_36_168)">
                    <path
                        d="M49.291 53.3555V49.2807C49.291 47.1192 48.4324 45.0463 46.904 43.518C45.3757 41.9896 43.3028 41.131 41.1413 41.131H24.8419C22.6805 41.131 20.6076 41.9896 19.0792 43.518C17.5509 45.0463 16.6923 47.1192 16.6923 49.2807V53.3555"
                        stroke="white" stroke-width="2.99376" stroke-linecap="round" stroke-linejoin="round"></path>
                    <path
                        d="M32.9917 32.9813C37.4926 32.9813 41.1414 29.3325 41.1414 24.8316C41.1414 20.3306 37.4926 16.6819 32.9917 16.6819C28.4907 16.6819 24.842 20.3306 24.842 24.8316C24.842 29.3325 28.4907 32.9813 32.9917 32.9813Z"
                        stroke="white" stroke-width="2.99376" stroke-linecap="round" stroke-linejoin="round"></path>
                    <path
                        d="M61.5155 53.3554V49.2806C61.5142 47.4749 60.9132 45.7207 59.8069 44.2936C58.7006 42.8665 57.1516 41.8472 55.4033 41.3958"
                        stroke="white" stroke-width="2.99376" stroke-linecap="round" stroke-linejoin="round"></path>
                    <path
                        d="M47.2536 16.9468C49.0066 17.3956 50.5604 18.4151 51.67 19.8446C52.7796 21.2741 53.3818 23.0322 53.3818 24.8418C53.3818 26.6514 52.7796 28.4095 51.67 29.839C50.5604 31.2684 49.0066 32.288 47.2536 32.7368"
                        stroke="white" stroke-width="2.99376" stroke-linecap="round" stroke-linejoin="round"></path>
                </g>
            </g>
        </g>
        <defs>
            <filter id="filter0_d_36_168" x="0.883556" y="0.590454" width="75.4428" height="75.4428"
                filterUnits="userSpaceOnUse" color-interpolation-filters="sRGB">
                <feFlood flood-opacity="0" result="BackgroundImageFix"></feFlood>
                <feColorMatrix in="SourceAlpha" type="matrix" values="0 0 0 0 0 0 0 0 0 0 0 0 0 0 0 0 0 0 127 0"
                    result="hardAlpha"></feColorMatrix>
                <feOffset dy="2.79418"></feOffset>
                <feGaussianBlur stdDeviation="1.39709"></feGaussianBlur>
                <feComposite in2="hardAlpha" operator="out"></feComposite>
                <feColorMatrix type="matrix" values="0 0 0 0 0 0 0 0 0 0 0 0 0 0 0 0 0 0 0.1 0"></feColorMatrix>
                <feBlend mode="normal" in2="BackgroundImageFix" result="effect1_dropShadow_36_168"></feBlend>
                <feBlend mode="normal" in="SourceGraphic" in2="effect1_dropShadow_36_168" result="shape"></feBlend>
            </filter>
            <clipPath id="clip0_36_168">
                <rect width="48.8981" height="48.8981" fill="white" transform="translate(14.1559 11.0686)"></rect>
            </clipPath>
            <clipPath id="clip1_36_168">
                <rect width="48.8981" height="48.8981" fill="white" transform="translate(14.6548 10.5697)"></rect>
            </clipPath>
        </defs>
    </symbol>
    <symbol fill="none" xmlns="http://www.w3.org/2000/svg" viewBox="0 0 40 40" id="send">
        <path d="M36.6666 3.3335L18.3333 21.6668" stroke="white" stroke-width="3" stroke-linecap="round"
            stroke-linejoin="round"></path>
        <path d="M36.6666 3.33301L25 36.6663L18.3333 21.6663L3.33331 14.9997L36.6666 3.33301Z" stroke="white"
            stroke-width="3" stroke-linecap="round" stroke-linejoin="round"></path>
    </symbol>
    <symbol fill="none" xmlns="http://www.w3.org/2000/svg" viewBox="0 0 51 50" id="shield">
        <rect x="0.424622" width="49.9615" height="50" rx="10" fill="#C4C4C4" fill-opacity="0.1"></rect>
        <path
            d="M25.4054 37.5C25.4054 37.5 35.3977 32.5 35.3977 25V16.25L25.4054 12.5L15.4131 16.25V25C15.4131 32.5 25.4054 37.5 25.4054 37.5Z"
            stroke="#17C2EC" stroke-width="2" stroke-linecap="round" stroke-linejoin="round"></path>
    </symbol>
    <symbol fill="none" xmlns="http://www.w3.org/2000/svg" viewBox="0 0 50 50" id="Thermometer">
        <path
            d="M29.2973 30.642V7.70061C29.2973 6.34972 28.7607 5.05415 27.8054 4.09892C26.8502 3.1437 25.5546 2.60706 24.2037 2.60706C22.8528 2.60706 21.5573 3.1437 20.6021 4.09892C19.6468 5.05415 19.1102 6.34972 19.1102 7.70061V30.642C17.4747 31.7347 16.234 33.3245 15.5713 35.1765C14.9087 37.0284 14.8591 39.0444 15.4301 40.9267C16.0011 42.8089 17.1622 44.4577 18.7421 45.6294C20.322 46.8011 22.2368 47.4337 24.2037 47.4337C26.1707 47.4337 28.0855 46.8011 29.6654 45.6294C31.2453 44.4577 32.4064 42.8089 32.9774 40.9267C33.5483 39.0444 33.4988 37.0284 32.8362 35.1765C32.1735 33.3245 30.9328 31.7347 29.2973 30.642Z"
            stroke="white" stroke-width="2.99376" stroke-linecap="round" stroke-linejoin="round"></path>
    </symbol>
    <symbol fill="none" xmlns="http://www.w3.org/2000/svg" viewBox="0 0 51 50" id="calendar">
        <rect x="0.68692" width="49.9615" height="50" rx="10" fill="#C4C4C4" fill-opacity="0.1"></rect>
        <path
            d="M34.4109 15H16.9244C15.5448 15 14.4263 16.1193 14.4263 17.5V35C14.4263 36.3807 15.5448 37.5 16.9244 37.5H34.4109C35.7906 37.5 36.909 36.3807 36.909 35V17.5C36.909 16.1193 35.7906 15 34.4109 15Z"
            stroke="#17C2EC" stroke-width="2" stroke-linecap="round" stroke-linejoin="round"></path>
        <path d="M30.6638 12.5V17.5" stroke="#17C2EC" stroke-width="2" stroke-linecap="round" stroke-linejoin="round">
        </path>
        <path d="M20.6715 12.5V17.5" stroke="#17C2EC" stroke-width="2" stroke-linecap="round" stroke-linejoin="round">
        </path>
        <path d="M14.4263 22.5H36.909" stroke="#17C2EC" stroke-width="2" stroke-linecap="round" stroke-linejoin="round">
        </path>
    </symbol>
    <symbol fill="none" xmlns="http://www.w3.org/2000/svg" viewBox="0 0 24 24" id="chevron-down">
        <path d="M6 9L12 15L18 9" stroke="black" stroke-opacity="0.25" stroke-width="2" stroke-linecap="round"
            stroke-linejoin="round"></path>
    </symbol>
    <symbol fill="none" xmlns="http://www.w3.org/2000/svg" viewBox="0 0 30 30" id="click">
        <path
            d="M14.9808 27.5C21.879 27.5 27.4712 21.9036 27.4712 15C27.4712 8.09644 21.879 2.5 14.9808 2.5C8.08252 2.5 2.49039 8.09644 2.49039 15C2.49039 21.9036 8.08252 27.5 14.9808 27.5Z"
            stroke="#17C2EC" stroke-width="2" stroke-linecap="round" stroke-linejoin="round"></path>
        <path d="M14.9808 7.5V15L19.9769 17.5" stroke="#17C2EC" stroke-width="2" stroke-linecap="round"
            stroke-linejoin="round"></path>
    </symbol>
    <symbol fill="none" xmlns="http://www.w3.org/2000/svg" viewBox="0 0 51 50" id="location">
        <rect x="0.969231" width="49.9615" height="50" rx="10" fill="#C4C4C4" fill-opacity="0.1"></rect>
        <path
            d="M37.1913 22.5C37.1913 31.25 25.95 38.75 25.95 38.75C25.95 38.75 14.7086 31.25 14.7086 22.5C14.7086 19.5163 15.893 16.6548 18.0012 14.545C20.1093 12.4353 22.9686 11.25 25.95 11.25C28.9314 11.25 31.7907 12.4353 33.8988 14.545C36.007 16.6548 37.1913 19.5163 37.1913 22.5Z"
            stroke="#17C2EC" stroke-width="2" stroke-linecap="round" stroke-linejoin="round"></path>
        <path
            d="M25.95 26.25C28.0195 26.25 29.6971 24.5711 29.6971 22.5C29.6971 20.4289 28.0195 18.75 25.95 18.75C23.8805 18.75 22.2029 20.4289 22.2029 22.5C22.2029 24.5711 23.8805 26.25 25.95 26.25Z"
            stroke="#17C2EC" stroke-width="2" stroke-linecap="round" stroke-linejoin="round"></path>
    </symbol>
    <symbol fill="none" xmlns="http://www.w3.org/2000/svg" viewBox="0 0 50 50" id="logo-Facebook">
        <path
            d="M37.5 4.1665H31.25C28.4874 4.1665 25.8378 5.26397 23.8843 7.21748C21.9308 9.17098 20.8334 11.8205 20.8334 14.5832V20.8332H14.5834V29.1665H20.8334V45.8332H29.1667V29.1665H35.4167L37.5 20.8332H29.1667V14.5832C29.1667 14.0306 29.3862 13.5007 29.7769 13.11C30.1676 12.7193 30.6975 12.4998 31.25 12.4998H37.5V4.1665Z"
            stroke="white" stroke-width="2" stroke-linecap="round" stroke-linejoin="round"></path>
    </symbol>
    <symbol fill="none" xmlns="http://www.w3.org/2000/svg" viewBox="0 0 50 50" id="logo-Instagram">
        <path
            d="M35.4166 4.1665H14.5833C8.83033 4.1665 4.16663 8.8302 4.16663 14.5832V35.4165C4.16663 41.1695 8.83033 45.8332 14.5833 45.8332H35.4166C41.1696 45.8332 45.8333 41.1695 45.8333 35.4165V14.5832C45.8333 8.8302 41.1696 4.1665 35.4166 4.1665Z"
            stroke="white" stroke-width="2" stroke-linecap="round" stroke-linejoin="round"></path>
        <path
            d="M33.3334 23.6876C33.5905 25.4215 33.2943 27.1923 32.487 28.7481C31.6797 30.3039 30.4024 31.5656 28.8368 32.3536C27.2711 33.1417 25.4968 33.416 23.7663 33.1375C22.0357 32.859 20.437 32.042 19.1976 30.8026C17.9582 29.5631 17.1411 27.9645 16.8627 26.2339C16.5842 24.5034 16.8585 22.7291 17.6466 21.1634C18.4346 19.5978 19.6963 18.3204 21.2521 17.5131C22.8079 16.7059 24.5787 16.4097 26.3125 16.6668C28.0811 16.9291 29.7185 17.7532 30.9827 19.0174C32.247 20.2817 33.0711 21.9191 33.3334 23.6876Z"
            stroke="white" stroke-width="2" stroke-linecap="round" stroke-linejoin="round"></path>
        <path d="M36.4584 13.5415H36.4792" stroke="white" stroke-width="2" stroke-linecap="round"
            stroke-linejoin="round"></path>
    </symbol>
    <symbol fill="none" xmlns="http://www.w3.org/2000/svg" viewBox="0 0 50 50" id="logo-Twitter">
        <path
            d="M47.9167 6.24995C45.9217 7.6572 43.7128 8.73351 41.375 9.43745C40.1203 7.99477 38.4528 6.97223 36.598 6.50813C34.7432 6.04404 32.7907 6.16078 31.0044 6.84256C29.2181 7.52435 27.6843 8.73829 26.6104 10.3202C25.5365 11.9021 24.9744 13.7757 25 15.6875V17.7708C21.3389 17.8657 17.711 17.0537 14.4396 15.4071C11.1683 13.7605 8.35487 11.3304 6.25004 8.33329C6.25004 8.33329 -2.08329 27.0833 16.6667 35.4166C12.3761 38.3291 7.26495 39.7894 2.08337 39.5833C20.8334 50 43.75 39.5833 43.75 15.625C43.7481 15.0446 43.6923 14.4658 43.5834 13.8958C45.7096 11.7989 47.2101 9.15144 47.9167 6.24995V6.24995Z"
            stroke="white" stroke-width="2" stroke-linecap="round" stroke-linejoin="round"></path>
    </symbol>
    <symbol fill="none" xmlns="http://www.w3.org/2000/svg" viewBox="0 0 50 50" id="logo-youtube">
        <path
            d="M46.9583 13.3752C46.7109 12.3864 46.2069 11.4805 45.4972 10.7489C44.7876 10.0173 43.8974 9.48596 42.9167 9.2085C39.3333 8.3335 25 8.3335 25 8.3335C25 8.3335 10.6667 8.3335 7.08334 9.29183C6.10261 9.5693 5.21246 10.1007 4.50282 10.8323C3.79317 11.5639 3.28915 12.4698 3.04168 13.4585C2.38587 17.0951 2.06509 20.7841 2.08334 24.4793C2.05997 28.2023 2.38078 31.9195 3.04168 35.5835C3.31451 36.5415 3.82982 37.413 4.53781 38.1137C5.24581 38.8144 6.12255 39.3206 7.08334 39.5835C10.6667 40.5418 25 40.5418 25 40.5418C25 40.5418 39.3333 40.5418 42.9167 39.5835C43.8974 39.306 44.7876 38.7747 45.4972 38.0431C46.2069 37.3115 46.7109 36.4056 46.9583 35.4168C47.6091 31.8076 47.9299 28.1467 47.9167 24.4793C47.9401 20.7563 47.6192 17.0391 46.9583 13.3752V13.3752Z"
            stroke="white" stroke-width="2" stroke-linecap="round" stroke-linejoin="round"></path>
        <path d="M20.3125 31.2915L32.2917 24.479L20.3125 17.6665V31.2915Z" stroke="white" stroke-width="2"
            stroke-linecap="round" stroke-linejoin="round"></path>
    </symbol>
</svg>