<svg width="18" height="15" viewBox="0 0 18 15" fill="none" xmlns="http://www.w3.org/2000/svg">
<path d="M17.0245 1.23405C16.3113 1.73709 15.5217 2.12184 14.6861 2.37347C14.2375 1.85776 13.6415 1.49224 12.9784 1.32634C12.3154 1.16044 11.6174 1.20217 10.9789 1.44589C10.3404 1.68961 9.79209 2.12355 9.40821 2.68903C9.02434 3.2545 8.82339 3.92423 8.83256 4.60764V5.35236C7.52381 5.38629 6.22698 5.09604 5.05757 4.50743C3.88816 3.91883 2.88247 3.05015 2.13007 1.97877C2.13007 1.97877 -0.848817 8.68126 5.85367 11.6601C4.31994 12.7012 2.49286 13.2233 0.640625 13.1496C7.34311 16.8732 15.535 13.1496 15.535 4.5853C15.5344 4.37786 15.5144 4.17093 15.4755 3.96718C16.2355 3.21761 16.7719 2.27123 17.0245 1.23405V1.23405Z" stroke="white" stroke-width="0.714932" stroke-linecap="round" stroke-linejoin="round"/>
</svg>
